<svg id="Capa_1" enable-background="new 0 0 512 512" height="512" viewBox="0 0 512 512" width="512" xmlns="http://www.w3.org/2000/svg"><g><g><g><path d="m286.625 65.513h-11.133c-4.196 0-7.598-3.402-7.598-7.598s3.402-7.598 7.598-7.598h11.133c6.537 0 12.488-3.595 15.532-9.382 1.329-2.504 2.024-5.323 2.024-8.174 0-6.125-3.111-11.706-8.321-14.939-2.769-1.719-5.96-2.627-9.235-2.627h-15.986c-4.196 0-7.598-3.402-7.598-7.598s3.402-7.597 7.598-7.597h15.986c6.111 0 12.075 1.699 17.249 4.912 9.705 6.021 15.502 16.429 15.502 27.839 0 5.335-1.308 10.616-3.784 15.281-5.665 10.774-16.77 17.481-28.967 17.481z" fill="#3c87d0"/></g><g><path d="m234.97 65.513h-13.351c-12.197 0-23.302-6.707-28.981-17.504-2.462-4.641-3.771-9.922-3.771-15.247 0-11.434 5.799-21.844 15.512-27.855 5.164-3.208 11.129-4.907 17.24-4.907h15.904c4.196 0 7.598 3.402 7.598 7.598s-3.402 7.598-7.598 7.598h-15.904c-3.275 0-6.467.908-9.232 2.625-5.216 3.229-8.324 8.808-8.324 14.931 0 2.862.695 5.68 2.011 8.16 3.056 5.811 9.008 9.406 15.545 9.406h13.351c4.196 0 7.598 3.402 7.598 7.598s-3.402 7.597-7.598 7.597z" fill="#3c87d0"/></g></g><path d="m275.491 93.167v-37.278c0-11.184-9.067-20.261-20.261-20.261-11.184 0-20.261 9.077-20.261 20.261v37.278z" fill="#eaf6ff"/><path d="m255.23 93.167v-37.278c0-7.496 4.072-14.041 10.13-17.536-2.978-1.732-6.443-2.725-10.13-2.725-11.184 0-20.261 9.077-20.261 20.261v37.278z" fill="#d8ecfe"/><circle cx="256" cy="299.263" fill="#5f99d7" r="212.737"/><path d="m271.195 511.46c-5.025.355-10.09.537-15.195.537-117.491 0-212.737-95.245-212.737-212.737s95.246-212.737 212.737-212.737c5.106 0 10.171.182 15.195.537-110.4 7.79-197.541 99.814-197.541 212.2s87.141 204.41 197.541 212.2z" fill="#3c87d0"/><path d="m428.216 299.26c0 2.462-.051 4.913-.152 7.355-1.773 42.051-18.62 80.202-45.272 109.185-3.424 3.728-7.01 7.304-10.758 10.728-29.044 26.491-67.194 43.175-109.205 44.817-2.269.091-4.538.132-6.828.132-2.806 0-5.592-.071-8.368-.203-41.777-1.996-79.655-18.883-108.445-45.465-3.718-3.434-7.284-7.041-10.698-10.789-26.238-28.892-42.801-66.728-44.553-108.405-.101-2.441-.152-4.893-.152-7.355 0-2.624.061-5.237.172-7.841 1.864-41.605 18.498-79.381 44.776-108.192 3.424-3.748 7-7.334 10.728-10.769 28.76-26.43 66.526-43.226 108.172-45.212 2.776-.132 5.562-.203 8.368-.203 2.289 0 4.559.041 6.828.132 41.879 1.631 79.918 18.225 108.931 44.573 3.748 3.414 7.355 6.98 10.789 10.698 26.693 28.912 43.611 66.992 45.495 108.972.111 2.605.172 5.218.172 7.842z" fill="#eaf6ff"/><path d="m276.261 470.29c-6.645.78-13.402 1.185-20.261 1.185-95.114 0-172.216-77.102-172.216-172.216s77.102-172.215 172.216-172.215c6.858 0 13.615.405 20.261 1.185-85.571 10.019-151.955 82.775-151.955 171.03 0 88.256 66.384 161.012 151.955 171.031z" fill="#d8ecfe"/><path d="m309.197 321.488 36.961-16.609c5.633-2.531 5.563-10.553-.113-12.986l-58.576-25.11-25.741-58.633c-2.482-5.654-10.504-5.654-12.986 0l-16.169 36.829-36.774-14.606c-5.779-2.295-11.506 3.423-9.21 9.202 3.897 9.812 9.207 23.182 14.512 36.538l-38.443 16.38c-5.749 2.449-5.749 10.598 0 13.047l60.342 25.712 25.741 58.633c2.482 5.654 10.504 5.654 12.986 0l16.169-36.83c13.454 5.344 26.917 10.691 36.779 14.608 5.779 2.295 11.498-3.431 9.203-9.21z" fill="#fff0ad"/><path d="m197.326 367.907 91.671-36.41-64.469-64.469-36.41 91.671c-2.296 5.779 3.429 11.504 9.208 9.208z" fill="#8ac9fe"/><path d="m288.996 331.498 36.41-91.671c2.295-5.779-3.429-11.503-9.208-9.208l-91.671 36.41z" fill="#f07281"/><g><g><path d="m262.828 127.176v20.129c0 4.204-3.394 7.598-7.598 7.598-4.194 0-7.598-3.394-7.598-7.598v-20.058c2.776-.132 5.562-.203 8.368-.203 2.289 0 4.559.041 6.828.132z" fill="#3c87d0"/></g><g><path d="m262.828 451.215v20.129c-2.269.091-4.538.132-6.828.132-2.806 0-5.592-.071-8.368-.203v-20.058c0-4.194 3.404-7.598 7.598-7.598 4.204 0 7.598 3.404 7.598 7.598z" fill="#3c87d0"/></g><g><g><path d="m111.643 299.017c0 4.194-3.404 7.598-7.598 7.598h-20.109c-.101-2.441-.152-4.893-.152-7.355 0-2.624.061-5.237.172-7.841h20.088c4.195 0 7.599 3.404 7.599 7.598z" fill="#3c87d0"/></g><g><path d="m428.216 299.26c0 2.462-.051 4.913-.152 7.355h-20.109c-4.194 0-7.598-3.404-7.598-7.598s3.404-7.598 7.598-7.598h20.088c.112 2.604.173 5.217.173 7.841z" fill="#3c87d0"/></g></g><g><path d="m153.471 411.524-14.284 14.284c-3.718-3.434-7.284-7.041-10.698-10.789l14.243-14.243c2.968-2.968 7.78-2.968 10.738 0 2.969 2.968 2.969 7.78.001 10.748z" fill="#3c87d0"/></g><g><path d="m382.548 182.447-14.233 14.243c-1.489 1.479-3.434 2.219-5.379 2.219s-3.89-.739-5.369-2.219c-2.968-2.968-2.968-7.78 0-10.748l14.193-14.193c3.747 3.414 7.354 6.98 10.788 10.698z" fill="#3c87d0"/></g><g><path d="m153.714 197.46c-1.479 1.489-3.424 2.229-5.369 2.229s-3.89-.74-5.379-2.229l-14.233-14.233c3.424-3.748 7-7.334 10.728-10.769l14.253 14.264c2.968 2.958 2.968 7.77 0 10.738z" fill="#3c87d0"/></g><g><path d="m382.791 415.799c-3.424 3.728-7.01 7.304-10.758 10.728l-14.203-14.203c-2.968-2.968-2.968-7.78 0-10.748 2.968-2.958 7.78-2.958 10.748 0z" fill="#3c87d0"/></g></g></g></svg>