<svg id="Layer_1" height="512" viewBox="0 0 512 512" width="512" xmlns="http://www.w3.org/2000/svg" data-name="Layer 1"><g id="_Path_" data-name=" Path "><path d="m103 27v458h301.37.63v-458z" fill="#dfe8f4"/><path d="m59.35 26.81h44v458.38h-44z" fill="#b3d1e7"/></g><path d="m285.19 203h-62.45a75.37 75.37 0 0 0 -41.74 67.39v53.61h146v-53.61a75.435 75.435 0 0 0 -41.81-67.39z" fill="#74b4e8"/><path d="m404.58 403.02h48.07v82.17h-48.07z" fill="#9fe2e0"/><path d="m404.58 321.17h48.07v81.85h-48.07z" fill="#bad79d"/><path d="m404.58 218.85h48.07v102.32h-48.07z" fill="#f3ce7d"/><path d="m404.58 116.53h48.07v102.32h-48.07z" fill="#eb7288"/><path d="m103 27h30v458h-30z" fill="#c5cfd8"/><path d="m252.74 203h-30a75.37 75.37 0 0 0 -41.74 67.39v53.61h30v-53.61a75.37 75.37 0 0 1 41.74-67.39z" fill="#66a7d3"/><path d="m285.19 203.05a46.558 46.558 0 1 1 15.33-34.53 46.392 46.392 0 0 1 -15.33 34.53z" fill="#ffd8b7"/><path d="m237.41 168.52a46.571 46.571 0 0 1 31.558-44.076 46.548 46.548 0 1 0 0 88.157 46.588 46.588 0 0 1 -31.558-44.081z" fill="#eac4a9"/><g fill="#284268"><path d="m452.648 111h-41.648v-84.194c0-3.314-3.1-5.806-6.419-5.806h-345.229c-3.314 0-6.352 2.492-6.352 5.806v458.388c0 3.314 3.038 5.806 6.352 5.806h393.3c3.314 0 6.352-2.492 6.352-5.806v-368.664c-.004-3.313-3.042-5.53-6.356-5.53zm-355.648 368h-32v-446h32zm302 0h-290v-446h290zm48 0h-36v-70h36zm0-82h-36v-70h36zm0-82h-36v-90h36zm0-102h-36v-90h36z"/><path d="m127 54h12v15h-12z"/><path d="m127 81h12v145h-12z"/><path d="m180.809 330h146.315c3.314 0 5.876-3.156 5.876-6.47v-53.136a81.492 81.492 0 0 0 -38.252-68.853 52.579 52.579 0 1 0 -81.533 0 81.455 81.455 0 0 0 -38.215 68.853v53.136c0 3.314 2.5 6.47 5.809 6.47zm73.157-202.038a40.555 40.555 0 1 1 -40.555 40.556 40.6 40.6 0 0 1 40.555-40.556zm-66.966 142.432a69.361 69.361 0 0 1 35.126-60.178 52.205 52.205 0 0 0 63.738 0 69.368 69.368 0 0 1 35.136 60.178v47.606h-134z"/><path d="m278 369h12v33h-12z"/><path d="m247 369h12v33h-12z"/><path d="m217 369h12v33h-12z"/><path d="m186 369h12v33h-12z"/><path d="m155 369h12v33h-12z"/><path d="m309 369h12v33h-12z"/><path d="m339 369h12v33h-12z"/></g></svg>